<svg xmlns="http://www.w3.org/2000/svg" viewBox="0 0 800 600" role="img" aria-label="Laptops">
  <defs>
    <linearGradient id="bg" x1="0" y1="0" x2="1" y2="1">
      <stop offset="0" stop-color="#0b0f14"/><stop offset="1" stop-color="#171326"/>
    </linearGradient>
    <radialGradient id="glow" cx="0.5" cy="0.45" r="0.55">
      <stop offset="0" stop-color="#a78bfa" stop-opacity="0.5"/>
      <stop offset="1" stop-color="#a78bfa" stop-opacity="0"/>
    </radialGradient>
    <linearGradient id="ink" x1="0" y1="0" x2="0.4" y2="1">
      <stop offset="0" stop-color="#f4f0ff"/><stop offset="1" stop-color="#a78bfa"/>
    </linearGradient>
    <pattern id="grid" width="40" height="40" patternUnits="userSpaceOnUse">
      <path d="M40 0H0v40" fill="none" stroke="#1b2530" stroke-width="1"/>
    </pattern>
  </defs>
  <rect width="800" height="600" fill="url(#bg)"/>
  <rect width="800" height="600" fill="url(#grid)" opacity="0.55"/>
  <rect width="800" height="600" fill="url(#glow)"/>
  <g fill="url(#ink)">
    <path d="M245 150h310c11 0 20 9 20 20v200H225V170c0-11 9-20 20-20z"/>
    <path d="M175 386h450l30 62c4 9-3 18-13 18H158c-10 0-17-9-13-18z"/>
  </g>
  <rect x="255" y="180" width="290" height="160" rx="10" fill="#0b0f14" opacity="0.7"/>
  <rect x="330" y="412" width="140" height="14" rx="7" fill="#0b0f14" opacity="0.6"/>
  <text x="400" y="540" text-anchor="middle" font-family="Segoe UI, Roboto, Arial, sans-serif" font-size="34" font-weight="700" letter-spacing="8" fill="#a78bfa" opacity="0.75">LAPTOPS</text>
</svg>